<svg xmlns="http://www.w3.org/2000/svg" data-name="Layer 1" viewBox="0 0 512 512" id="hotels"><path fill="#cae6f7" d="M37.5 168.5h119a30 30 0 0 1 30 30v306H7.5v-306a30 30 0 0 1 30-30zm318 0h119a30 30 0 0 1 30 30v306h-179v-306a30 30 0 0 1 30-30z"></path><path fill="#b8dff7" d="M151.5 97.5h209a30 30 0 0 1 30 30v377h-269v-377a30 30 0 0 1 30-30Z"></path><rect width="179" height="179" x="166.5" y="7.5" fill="#bcd44c" rx="30"></rect><path fill="#aece44" d="M315.5 7.5h-30a30 30 0 0 1 30 30v119a30 30 0 0 1-30 30h30a30 30 0 0 0 30-30v-119a30 30 0 0 0-30-30Z"></path><path fill="#e1e1e3" d="M255.818 59.274a14.944 14.944 0 0 1 14.944 14.945v13.486h-29.889V74.22a14.944 14.944 0 0 1 14.945-14.945Z"></path><path fill="#fff" d="M255.089 84.425h1.458a50.3 50.3 0 0 1 50.3 50.3h-102.06a50.3 50.3 0 0 1 50.302-50.3Z"></path><path fill="#e1e1e3" d="M317.782 142.226H194.217a7.5 7.5 0 1 1 0-15h123.565a7.5 7.5 0 0 1 0 15Z"></path><path fill="#8b8893" d="M239 343.5h34a30 30 0 0 1 30 30v131h-94v-131a30 30 0 0 1 30-30Z"></path><path fill="#787681" d="M273 343.5h-30a30 30 0 0 1 30 30v131h30v-131a30 30 0 0 0-30-30Z"></path><rect width="67" height="67" x="166.5" y="231.5" fill="#52bbe9" rx="4"></rect><path fill="#1cabe1" d="M229.5 231.5h-30a4 4 0 0 1 4 4v59a4 4 0 0 1-4 4h30a4 4 0 0 0 4-4v-59a4 4 0 0 0-4-4Z"></path><rect width="67" height="67" x="278.5" y="231.5" fill="#52bbe9" rx="4"></rect><path fill="#1cabe1" d="M341.5 231.5h-30a4 4 0 0 1 4 4v59a4 4 0 0 1-4 4h30a4 4 0 0 0 4-4v-59a4 4 0 0 0-4-4Z"></path><path fill="#52bbe9" d="M390.5 231.5h63a4 4 0 0 1 4 4v59a4 4 0 0 1-4 4h-63v-67Z"></path><path fill="#1cabe1" d="M453.5 231.5h-30a4 4 0 0 1 4 4v59a4 4 0 0 1-4 4h30a4 4 0 0 0 4-4v-59a4 4 0 0 0-4-4Z"></path><path fill="#52bbe9" d="M58.5 231.5h63v67h-63a4 4 0 0 1-4-4v-59a4 4 0 0 1 4-4Z"></path><path fill="#1cabe1" d="M91.5 231.5h30v67h-30z"></path><path fill="#52bbe9" d="M390.5 351.5h63a4 4 0 0 1 4 4v59a4 4 0 0 1-4 4h-63v-67Z"></path><path fill="#1cabe1" d="M453.5 351.5h-30a4 4 0 0 1 4 4v59a4 4 0 0 1-4 4h30a4 4 0 0 0 4-4v-59a4 4 0 0 0-4-4Z"></path><path fill="#52bbe9" d="M58.5 351.5h63v67h-63a4 4 0 0 1-4-4v-59a4 4 0 0 1 4-4Z"></path><path fill="#1cabe1" d="M91.5 351.5h30v67h-30z"></path></svg>