<svg xmlns="http://www.w3.org/2000/svg" width="32" height="32" id="travel"><g color="#000" font-family="sans-serif" font-weight="400"><path style="line-height:normal;text-indent:0;text-align:start;text-decoration-line:none;text-decoration-style:solid;text-decoration-color:#000;text-transform:none;block-progression:tb;isolation:auto;mix-blend-mode:normal" fill="#f05542" d="M74.643 470.734a.5.5 0 0 0-.5.5v2a.5.5 0 1 0 1 0v-1.5h3v1.5a.5.5 0 1 0 1 0v-2a.5.5 0 0 0-.5-.5h-4z" overflow="visible" transform="translate(-55.145 -455.736)"></path><path style="line-height:normal;text-indent:0;text-align:start;text-decoration-line:none;text-decoration-style:solid;text-decoration-color:#000;text-transform:none;block-progression:tb;isolation:auto;mix-blend-mode:normal" fill="#f05542" d="M71.66 472.734a.5.5 0 1 0 0 1h11.483v8H71.66a.5.5 0 1 0 0 1h11.983a.5.5 0 0 0 .5-.5v-9a.5.5 0 0 0-.5-.5H71.66z" overflow="visible" transform="translate(-55.145 -455.736)"></path><path style="line-height:normal;text-indent:0;text-align:start;text-decoration-line:none;text-decoration-style:solid;text-decoration-color:#000;text-transform:none;block-progression:tb;isolation:auto;mix-blend-mode:normal" fill="#f05542" d="M83.635 474.727a.5.5 0 0 0-.492.507c0 .84-.66 1.5-1.5 1.5h-3.928a.5.5 0 1 0 0 1h3.928c1.376 0 2.5-1.123 2.5-2.5a.5.5 0 0 0-.508-.507zm-11.992 2.007a.5.5 0 1 0 0 1h3.888a.5.5 0 1 0 0-1h-3.888z" overflow="visible" transform="translate(-55.145 -455.736)"></path><path style="line-height:normal;text-indent:0;text-align:start;text-decoration-line:none;text-decoration-style:solid;text-decoration-color:#000;text-transform:none;block-progression:tb;isolation:auto;mix-blend-mode:normal" fill="#cad1d8" fill-rule="evenodd" d="M60.27 483.002c-.751 0-1.375.616-1.375 1.367 0 .752.624 1.367 1.375 1.367.75 0 1.375-.615 1.375-1.367 0-.751-.625-1.367-1.375-1.367zm0 1c.215 0 .375.161.375.367s-.16.367-.375.367a.364.364 0 0 1-.375-.367c0-.206.16-.367.375-.367zm8.746-1c-.751 0-1.375.616-1.375 1.367 0 .752.624 1.367 1.375 1.367.75 0 1.375-.615 1.375-1.367 0-.751-.624-1.367-1.375-1.367zm0 1c.215 0 .375.161.375.367s-.16.367-.375.367a.364.364 0 0 1-.375-.367c0-.206.16-.367.375-.367z" overflow="visible" transform="translate(-55.145 -455.736)"></path><path style="line-height:normal;text-indent:0;text-align:start;text-decoration-line:none;text-decoration-style:solid;text-decoration-color:#000;text-transform:none;block-progression:tb;isolation:auto;mix-blend-mode:normal" fill="#25b39e" fill-rule="evenodd" d="M61.844 474.734c-.942 0-1.701.792-1.701 1.739v6.857a.5.5 0 1 0 1 0v-6.857c0-.427.313-.739.7-.739h5.6c.388 0 .7.312.7.739v6.857a.5.5 0 1 0 1 0v-6.857c0-.947-.758-1.739-1.7-1.739h-5.6zm1.799-11a.5.5 0 0 0-.5.5v1.836a.5.5 0 1 0 1 0v-1.336h1v1.336a.5.5 0 1 0 1 0v-1.836a.5.5 0 0 0-.5-.5h-2zm-2.237-3v1h6.473v-1h-6.473zm-3.761 11v1H71.64v-1H57.645z" overflow="visible" transform="translate(-55.145 -455.736)"></path><path style="line-height:normal;text-indent:0;text-align:start;text-decoration-line:none;text-decoration-style:solid;text-decoration-color:#000;text-transform:none;block-progression:tb;isolation:auto;mix-blend-mode:normal" fill="#34485c" d="m74.514 458.256-.07.006-.296.043.145.99.27-.039 1.132-.002.448.064.14-.99-.474-.068-.07-.006zm-2.477.531-.066.026-.819.37.414.91.782-.355 1.027-.302-.281-.96zm5.018.692.869.255.931.422.415-.91-.957-.435-.067-.024-.91-.267zm-7.23.496-.057.04-.909.776-.048.049-.22.246.75.662.192-.217.862-.734.369-.235-.535-.843zm9.821.668.249.156.85.726.298.336.75-.662-.318-.361-.051-.049-.904-.771-.055-.041-.281-.178zM67.3 462.824l.836.547.603-.92-.836-.547zm14.332-.246.486.736.444.948.906-.426-.461-.979-.035-.062-.506-.768zm1.215 2.567.097.318.172 1.117.004.393 1-.01-.004-.43-.006-.07-.183-1.192-.016-.07-.107-.35zm.138 3.666-.267.976.963.266.277-1.01.016-.068.12-.946-.991-.127zm-.744 2.113-.588.959-.275.33.77.64.294-.355.041-.059.631-1.025.032-.064.132-.307-.916-.397z" overflow="visible" transform="translate(-55.145 -455.736)"></path><path style="line-height:normal;text-indent:0;text-align:start;text-decoration-line:none;text-decoration-style:solid;text-decoration-color:#000;text-transform:none;block-progression:tb;isolation:auto;mix-blend-mode:normal" fill="#25b39e" fill-rule="evenodd" d="M59.045 465.666c-1.025 0-1.9.792-1.9 1.8v14.737c0 1.01.875 1.799 1.9 1.799H70.24c1.025 0 1.9-.79 1.9-1.799v-14.736c0-1.01-.875-1.801-1.9-1.801H59.045zm0 1H70.24c.526 0 .9.37.9.8v14.737c0 .432-.374.799-.9.799H59.045c-.526 0-.9-.367-.9-.799v-14.736c0-.432.374-.801.9-.801z" overflow="visible" transform="translate(-55.145 -455.736)"></path><path style="line-height:normal;text-indent:0;text-align:start;text-decoration-line:none;text-decoration-style:solid;text-decoration-color:#000;text-transform:none;block-progression:tb;isolation:auto;mix-blend-mode:normal" fill="#25b39e" fill-rule="evenodd" d="M62.018 458.73c-.518 0-.875.462-.875.934v6.457a.5.5 0 1 0 1 0v-6.39h5v6.39a.5.5 0 1 0 1 0v-6.457c0-.472-.358-.934-.875-.934h-5.25zm.75 10.004c-.892 0-1.625.734-1.625 1.625v1.868a.5.5 0 1 0 1 0v-1.868c0-.354.27-.625.625-.625h3.75c.354 0 .625.27.625.625v1.868a.5.5 0 1 0 1 0v-1.868c0-.891-.734-1.625-1.625-1.625h-3.75zm-2.498 8v1h8.746v-1H60.27z" overflow="visible" transform="translate(-55.145 -455.736)"></path><path style="line-height:normal;text-indent:0;text-align:start;text-decoration-line:none;text-decoration-style:solid;text-decoration-color:#000;text-transform:none;block-progression:tb;isolation:auto;mix-blend-mode:normal" fill="#25b39e" fill-rule="evenodd" d="M66.143 477.002v1.732h1v-1.732h-1z" overflow="visible" transform="translate(-55.145 -455.736)"></path><path style="line-height:normal;text-indent:0;text-align:start;text-decoration-line:none;text-decoration-style:solid;text-decoration-color:#000;text-transform:none;block-progression:tb;isolation:auto;mix-blend-mode:normal" fill="#f8b84e" d="M75.643 475.734a.5.5 0 0 0-.5.5v2a.5.5 0 0 0 .5.5h2a.5.5 0 0 0 .5-.5v-2a.5.5 0 0 0-.5-.5h-2zm.5 1h1v1h-1v-1z" overflow="visible" transform="translate(-55.145 -455.736)"></path></g></svg>